# xmcd CD database file
#
# Track frame offsets:
#	150
#	17307
#	40432
#	62232
#	82035
#	98527
#	123830
#	140030
#	156032
#	179182
#	200472
#	221812
#	240830
#
# Disc length: 3507 seconds
#
# Revision: 0
# Processed by: cddbd v1.5.1PL0 Copyright (c) Steve Scherf et al.
# Submitted via: CDex 1.50beta8
#
DISCID=b20db10d
DTITLE=Various Artist - 天地無用！の主題歌ベストアルバム
DYEAR=2005
DGENRE=Anime
TTITLE0=恋愛の才能
TTITLE1=ぼくはもっとパイオニア
TTITLE2=月のTRAGEDY
TTITLE3=天地無用！
TTITLE4=銀河で直立歩行
TTITLE5=恋愛の時空
TTITLE6=夢はどこへいった
TTITLE7=やめられない　やめられない
TTITLE8=かたおもい
TTITLE9=ALCHEMY OF LOVE〜愛の錬金術〜
TTITLE10=ALCHEMY OF LOVE〜愛の錬金術〜(日本語ヴァージョン)
TTITLE11=真夏のイヴ
TTITLE12=Love Songが聞こえる
EXTD=YEAR: 2005
EXTT0=
EXTT1=
EXTT2=
EXTT3=
EXTT4=
EXTT5=
EXTT6=
EXTT7=
EXTT8=
EXTT9=
EXTT10=
EXTT11=
EXTT12=
PLAYORDER=
